<svg width="10" height="11" viewBox="0 0 10 11" version="1.1" xmlns="http://www.w3.org/2000/svg" xmlns:xlink="http://www.w3.org/1999/xlink">
<title>Combined Shape</title>
<desc>Created using Figma</desc>
<g id="Canvas" transform="translate(1034 -1285)">
<rect x="-1034" y="1285" width="10" height="11" fill="#FFFFFF"/>
<clipPath id="clip-0" clip-rule="evenodd">
<path d="M -2061 -985L -937 -985L -937 1336L -2061 1336L -2061 -985Z" fill="#FFFFFF"/>
</clipPath>
<g id="Airbnb / Desktop" clip-path="url(#clip-0)">
<path d="M -2061 -985L -937 -985L -937 1336L -2061 1336L -2061 -985Z" fill="#FFFFFF"/>
<g id="footer">
<g id="bg" filter="url(#filter0_d)">
<use xlink:href="#path0_fill" transform="translate(-2061 935)" fill="#FFFFFF"/>
</g>
<g id="bottom">
<g id="ic/24/social/instagram">
<g id="Combined Shape">
<use xlink:href="#path1_fill" transform="translate(-1033.84 1285.6)" fill="#484848"/>
</g>
<mask id="mask0_outline" mask-type="alpha">
<g id="Combined Shape">
<use xlink:href="#path1_fill" transform="translate(-1033.84 1285.6)" fill="#FFFFFF"/>
</g>
</mask>
</g>
</g>
</g>
</g>
</g>
<defs>
<filter id="filter0_d" filterUnits="userSpaceOnUse" x="-2061" y="934" width="1124" height="402" color-interpolation-filters="sRGB">
<feFlood flood-opacity="0" result="BackgroundImageFix"/>
<feColorMatrix in="SourceAlpha" type="matrix" values="0 0 0 0 0 0 0 0 0 0 0 0 0 0 0 0 0 0 255 0"/>
<feOffset dx="0" dy="-0.5"/>
<feColorMatrix type="matrix" values="0 0 0 0 0.282353 0 0 0 0 0.282353 0 0 0 0 0.282353 0 0 0 0.3 0"/>
<feBlend mode="normal" in2="BackgroundImageFix" result="effect1_dropShadow"/>
<feBlend mode="normal" in="SourceGraphic" in2="effect1_dropShadow" result="shape"/>
</filter>
<path id="path0_fill" fill-rule="evenodd" d="M 0 0L 1124 0L 1124 401L 0 401L 0 0Z"/>
<path id="path1_fill" fill-rule="evenodd" d="M 8.27478 0.234131C 8.42322 0.085083 8.62976 0 8.83997 0C 9.05078 0 9.25732 0.085083 9.40576 0.234131C 9.55481 0.382568 9.63989 0.589111 9.63989 0.800049C 9.63989 1.01013 9.55481 1.21667 9.40576 1.36584C 9.25659 1.51416 9.05078 1.59998 8.83997 1.59998C 8.62976 1.59998 8.42322 1.51416 8.27478 1.36584C 8.12573 1.21667 8.03992 1.01025 8.03992 0.800049C 8.03992 0.589111 8.12561 0.382568 8.27478 0.234131ZM 0 6.40002C 0 8.51733 1.72266 10.2397 3.83997 10.2397C 5.95728 10.2397 7.68005 8.51733 7.68005 6.40002C 7.68005 4.28259 5.9574 2.56006 3.83997 2.56006C 1.72253 2.56006 0 4.28259 0 6.40002Z"/>
</defs>
</svg>
